<svg width="40" height="40" xmlns="http://www.w3.org/2000/svg"><g fill="#FFF"><path d="M37.25 32.895V15.842c0-1.569-1.232-2.842-2.75-2.842h-2.75V32.894L29 40h11l-2.75-7.105zM8.25 18.684V13H5.5c-1.519 0-2.75 1.272-2.75 2.842v17.053L0 40h11l-2.75-7.105v-14.21zM29.952 11H30V9.623C30 4.31 25.522 0 20 0S10 4.31 10 9.623V11H29.952zm-4.238-4.125c.79 0 1.429.617 1.429 1.375 0 .759-.64 1.375-1.429 1.375-.79 0-1.428-.616-1.428-1.375 0-.758.639-1.375 1.428-1.375zM20 2.062c1.575 0 2.857 1.234 2.857 2.75 0 1.518-1.282 2.75-2.857 2.75-1.579 0-2.857-1.232-2.857-2.75 0-1.516 1.278-2.75 2.857-2.75z"/><path d="M30 13H10v20.125L12.857 36h14.286L30 33.125V13zm-5.714 11.5h-8.572c-.79 0-1.428-.643-1.428-1.438 0-.794.639-1.437 1.428-1.437h8.572c.79 0 1.428.643 1.428 1.438 0 .794-.639 1.437-1.428 1.437zm0-5.75h-8.572c-.79 0-1.428-.644-1.428-1.438 0-.793.639-1.437 1.428-1.437h8.572c.79 0 1.428.644 1.428 1.438 0 .793-.639 1.437-1.428 1.437z"/></g></svg>
